<?xml version="1.0" ?><!-- Uploaded to: SVG Repo, www.svgrepo.com, Generator: SVG Repo Mixer Tools -->
<svg fill="#000000" width="800px" height="800px" viewBox="0 0 512 512" data-name="Layer 1" id="Layer_1" xmlns="http://www.w3.org/2000/svg"><path d="M468.46,222.89a30.24,30.24,0,0,0-11.57-20.75l-41.61-32.41v-94a4.52,4.52,0,0,0-4.53-4.53H346a4.53,4.53,0,0,0-4.53,4.53v36.47L266,53.43a16.21,16.21,0,0,0-19.93,0L55.12,202.08a30.47,30.47,0,0,0-4.74,43.5L57.32,254A30.6,30.6,0,0,0,98.88,259l0,198.41a4.54,4.54,0,0,0,4.54,4.54l305.16,0a4.53,4.53,0,0,0,4.54-4.53l0-198.41A30.61,30.61,0,0,0,454.67,254l6.95-8.37A30.2,30.2,0,0,0,468.46,222.89Zm-360.54,230,0-201.11L251.62,136.62a7,7,0,0,1,8.79,0L404.05,251.83l0,201.1Zm346.72-213-6.94,8.37a21.52,21.52,0,0,1-29.88,3l-6.33-5.08a.18.18,0,0,0-.07,0L266.08,129.55a16,16,0,0,0-20.14,0L94.17,251.21a21.51,21.51,0,0,1-29.87-3l-6.95-8.38a21.4,21.4,0,0,1,3.33-30.55L251.62,60.58a7.16,7.16,0,0,1,8.8,0L343.17,125a4.53,4.53,0,0,0,7.32-3.58V80.26h55.74v91.67a4.54,4.54,0,0,0,1.74,3.58l43.36,33.77a21.4,21.4,0,0,1,3.32,30.56Z"/><path d="M272.39,258.67a33.37,33.37,0,1,0-32.79,0L207.89,406.1a4.53,4.53,0,0,0,2.07,4.83l43.65,26.68a4.55,4.55,0,0,0,4.72,0L302,410.94a4.53,4.53,0,0,0,2.06-4.82Zm-40.7-29.05A24.31,24.31,0,1,1,256,253.92,24.33,24.33,0,0,1,231.69,229.62ZM256,428.43l-38.54-23.56,30.72-142.82a33.21,33.21,0,0,0,15.69,0l30.69,142.83Z"/></svg>