<?xml version="1.0" encoding="iso-8859-1"?>
<!-- Uploaded to: SVG Repo, www.svgrepo.com, Generator: SVG Repo Mixer Tools -->
<svg version="1.1" id="Layer_1" xmlns="http://www.w3.org/2000/svg" xmlns:xlink="http://www.w3.org/1999/xlink" 
	 viewBox="0 0 512 512" xml:space="preserve">
<path style="fill:#F1F2F2;" d="M446.512,512H65.488C29.378,512,0,482.622,0,446.512v-273.86c0-9.864,7.997-17.86,17.86-17.86H494.14
	c9.864,0,17.86,7.997,17.86,17.86v273.86C512,482.622,482.622,512,446.512,512z"/>
<path style="fill:#BCBEC0;" d="M494.14,154.791H256V512h190.512c36.11,0,65.488-29.378,65.488-65.488v-273.86
	C512,162.787,504.003,154.791,494.14,154.791z"/>
<path style="fill:#FFCE3E;" d="M512,190.512H0V65.488C0,29.32,29.32,0,65.488,0h381.023C482.68,0,512,29.32,512,65.488V190.512z"/>
<g>
	<path style="fill:#F59D00;" d="M512,65.488C512,29.32,482.68,0,446.512,0H256v190.512h256V65.488z"/>
	<rect x="92.374" style="fill:#F59D00;" width="35.721" height="190.512"/>
	<rect x="154.791" style="fill:#F59D00;" width="35.721" height="190.512"/>
</g>
<path style="fill:#BCBEC0;" d="M256,392.93c-75.503,0-136.93-61.427-136.93-136.93S180.497,119.07,256,119.07
	S392.93,180.497,392.93,256S331.503,392.93,256,392.93z"/>
<path style="fill:#808285;" d="M256,119.07v273.86c75.503,0,136.93-61.427,136.93-136.93S331.503,119.07,256,119.07z"/>
<path style="fill:#FEE856;" d="M256,333.395c-42.676,0-77.395-34.72-77.395-77.395s34.72-77.395,77.395-77.395
	s77.395,34.72,77.395,77.395S298.676,333.395,256,333.395z"/>
<g>
	<path style="fill:#FFCE3E;" d="M428.651,146.607h-47.628c-9.864,0-17.86-7.997-17.86-17.86V81.119c0-9.864,7.997-17.86,17.86-17.86
		h47.628c9.864,0,17.86,7.997,17.86,17.86v47.628C446.512,138.61,438.515,146.607,428.651,146.607z"/>
	<path style="fill:#FFCE3E;" d="M256,178.605v154.791c42.676,0,77.395-34.72,77.395-77.395S298.676,178.605,256,178.605z"/>
</g>
</svg>